
<svg xmlns="http://www.w3.org/2000/svg" viewBox="0 0 24 24">
 <defs>
    <linearGradient id="grad3" x1="0%" y1="0%" x2="100%" y2="0%">
      <stop offset="0%" style="stop-color:rgb(221, 153, 255);stop-opacity:1" />
      <stop offset="100%" style="stop-color:rgb(128, 159, 255);stop-opacity:1" />
    </linearGradient>
  </defs>
<g fill='url(#grad3)'><path d="M2.6 12.7c-.4-.4-.4-1 0-1.4l4.7-4.7c.4-.4.4-1 0-1.4s-1-.4-1.4 0L.7 10.4c-.9.9-.9 2.3 0 3.2l5.2 5.2c.4.4 1 .4 1.4 0 .4-.4.4-1 0-1.4l-4.7-4.7zM23.3 10.4l-5.2-5.2c-.4-.4-1-.4-1.4 0-.4.4-.4 1 0 1.4l4.7 4.7c.4.4.4 1 0 1.4l-4.7 4.7c-.4.4-.4 1 0 1.4s1 .4 1.4 0l5.2-5.2c.9-.9.9-2.3 0-3.2zM14.7 3.9c-.5-.2-1.1.1-1.3.6L8.6 18.8c-.2.5.1 1.1.6 1.3.5.2 1.1-.1 1.3-.6l4.8-14.3c.2-.5 0-1.1-.6-1.3z"></path></g></svg>
