<svg width="100%" height="100%" id="svg" viewBox="0 0 1440 700" xmlns="http://www.w3.org/2000/svg" class="transition duration-300 ease-in-out delay-150"><defs><linearGradient id="gradient" x1="0%" y1="50%" x2="100%" y2="50%"><stop offset="5%" stop-color="#fcb90066"></stop><stop offset="95%" stop-color="#32ded466"></stop></linearGradient></defs><path d="M 0,700 C 0,700 0,175 0,175 C 97.78974358974361,185.8025641025641 195.57948717948722,196.6051282051282 281,182 C 366.4205128205128,167.3948717948718 439.4717948717948,127.38205128205128 518,113 C 596.5282051282052,98.61794871794872 680.5333333333333,109.86666666666667 741,130 C 801.4666666666667,150.13333333333333 838.3948717948718,179.15128205128207 917,201 C 995.6051282051282,222.84871794871793 1115.8871794871795,237.52820512820512 1210,232 C 1304.1128205128205,226.47179487179488 1372.0564102564103,200.73589743589744 1440,175 C 1440,175 1440,700 1440,700 Z" stroke="none" stroke-width="0" fill="url(#gradient)" class="transition-all duration-300 ease-in-out delay-150 path-0"></path><defs><linearGradient id="gradient" x1="0%" y1="50%" x2="100%" y2="50%"><stop offset="5%" stop-color="#fcb90088"></stop><stop offset="95%" stop-color="#32ded488"></stop></linearGradient></defs><path d="M 0,700 C 0,700 0,350 0,350 C 85.08461538461538,392.9025641025641 170.16923076923075,435.8051282051282 257,409 C 343.83076923076925,382.1948717948718 432.4076923076923,285.68205128205125 508,290 C 583.5923076923077,294.31794871794875 646.2,399.4666666666667 708,404 C 769.8,408.5333333333333 830.7923076923078,312.451282051282 919,293 C 1007.2076923076922,273.548717948718 1122.6307692307694,330.7282051282051 1214,353 C 1305.3692307692306,375.2717948717949 1372.6846153846154,362.63589743589745 1440,350 C 1440,350 1440,700 1440,700 Z" stroke="none" stroke-width="0" fill="url(#gradient)" class="transition-all duration-300 ease-in-out delay-150 path-1"></path><defs><linearGradient id="gradient" x1="0%" y1="50%" x2="100%" y2="50%"><stop offset="5%" stop-color="#fcb900ff"></stop><stop offset="95%" stop-color="#32ded4ff"></stop></linearGradient></defs><path d="M 0,700 C 0,700 0,525 0,525 C 92.96153846153848,521.8256410256411 185.92307692307696,518.6512820512821 266,509 C 346.07692307692304,499.34871794871793 413.2692307692307,483.22051282051285 485,479 C 556.7307692307693,474.77948717948715 633,482.4666666666666 715,478 C 797,473.5333333333334 884.7307692307693,456.9128205128206 967,477 C 1049.2692307692307,497.0871794871794 1126.076923076923,553.8820512820513 1204,568 C 1281.923076923077,582.1179487179487 1360.9615384615386,553.5589743589744 1440,525 C 1440,525 1440,700 1440,700 Z" stroke="none" stroke-width="0" fill="url(#gradient)" class="transition-all duration-300 ease-in-out delay-150 path-2"></path></svg>