<svg width="100%" height="100%" id="svg" viewBox="0 0 1440 600" xmlns="http://www.w3.org/2000/svg" class="transition duration-300 ease-in-out delay-150"><defs><linearGradient id="gradient" x1="0%" y1="50%" x2="100%" y2="50%"><stop offset="5%" stop-color="#002bdc88"></stop><stop offset="95%" stop-color="#32ded488"></stop></linearGradient></defs><path d="M 0,600 C 0,600 0,200 0,200 C 107.43540669856458,222.87081339712918 214.87081339712915,245.74162679425837 307,237 C 399.12918660287085,228.25837320574163 475.9521531100479,187.90430622009572 576,193 C 676.0478468899521,198.09569377990428 799.3205741626795,248.64114832535884 907,238 C 1014.6794258373205,227.35885167464116 1106.7655502392345,155.5311004784689 1193,139 C 1279.2344497607655,122.4688995215311 1359.6172248803828,161.23444976076556 1440,200 C 1440,200 1440,600 1440,600 Z" stroke="none" stroke-width="0" fill="url(#gradient)" class="transition-all duration-300 ease-in-out delay-150 path-0"></path><defs><linearGradient id="gradient" x1="0%" y1="50%" x2="100%" y2="50%"><stop offset="5%" stop-color="#002bdcff"></stop><stop offset="95%" stop-color="#32ded4ff"></stop></linearGradient></defs><path d="M 0,600 C 0,600 0,400 0,400 C 108.01913875598083,439.6555023923445 216.03827751196167,479.311004784689 322,471 C 427.96172248803833,462.688995215311 531.8660287081341,406.41148325358853 612,388 C 692.1339712918659,369.58851674641147 748.4976076555023,389.04306220095697 836,410 C 923.5023923444977,430.95693779904303 1042.1435406698565,453.4162679425837 1148,452 C 1253.8564593301435,450.5837320574163 1346.9282296650717,425.2918660287081 1440,400 C 1440,400 1440,600 1440,600 Z" stroke="none" stroke-width="0" fill="url(#gradient)" class="transition-all duration-300 ease-in-out delay-150 path-1"></path></svg>